#!OML:ASF F:\VICON\USERDATA\INSTALL\Justin_Nancy\Justin_Nancy.ASF
:FULLY-SPECIFIED
:DEGREES
142
root -8.13033 17.6514 -9.38266 -0.660611 8.59991 -4.01818
lowerback 5.41399 -0.194163 0.847924
upperback 1.0855 -0.135715 3.22961
thorax -1.91284 -0.0643783 2.85991
lowerneck -14.7329 -3.47306 -9.20419
upperneck 23.5782 -3.67008 4.59836
head 10.2237 -1.97718 2.69425
rclavicle 1.05356e-014 -2.0276e-014
rhumerus -30.2261 -14.5075 -76.6051
rradius 26.9445
rwrist 10.2196
rhand -14.6087 13.2951
rfingers 7.12502
rthumb 11.5421 -16.3671
lclavicle 1.05356e-014 -2.0276e-014
lhumerus -31.1298 7.2664 85.4096
lradius 27.4422
lwrist -12.4417
lhand -6.39659 44.072
lfingers 7.12502
lthumb 19.4511 73.1191
rfemur -9.49077 4.54723 25.6778
rtibia 22.0799
rfoot -7.27382 -7.15606
rtoes 3.32058
lfemur -22.1373 1.25061 -19.2646
ltibia 62.1106
lfoot -6.16996 -2.50993
ltoes -1.84376
143
root -8.1214 17.6313 -9.2509 -0.694512 9.15365 -4.32761
lowerback 5.61414 -0.144647 1.21527
upperback 0.919075 -0.037079 3.19108
thorax -2.20077 -0.0159811 2.60829
lowerneck -14.6443 -3.65717 -9.4142
upperneck 23.8789 -3.92184 4.725
head 10.3441 -2.10143 2.7453
rclavicle -1.5381e-014 9.14409e-015
rhumerus -30.5958 -14.4182 -76.5985
rradius 27.6759
rwrist 10.2157
rhand -14.2678 12.8156
rfingers 7.12502
rthumb 11.8709 -16.8279
lclavicle -1.5381e-014 9.14409e-015
lhumerus -31.4914 7.30628 85.2687
lradius 27.0938
lwrist -12.1583
lhand -10.5027 36.2044
lfingers 7.12502
lthumb 15.4995 65.6031
rfemur -9.30911 4.38178 26.1075
rtibia 22.7774
rfoot -8.06322 -7.75843
rtoes 3.60673
lfemur -23.1597 1.62273 -18.9167
ltibia 61.4054
lfoot -7.20112 -2.32785
ltoes -0.575535
144
root -8.10874 17.61 -9.12483 -0.698834 9.71282 -4.44078
lowerback 5.92215 -0.115856 1.52312
upperback 0.779964 0.0319592 3.04056
thorax -2.51872 0.0159631 2.27646
lowerneck -14.6392 -3.72527 -9.33707
upperneck 23.8841 -4.06139 4.81784
head 10.3557 -2.14734 2.74685
rclavicle 3.27498e-014 -3.97569e-016
rhumerus -30.642 -14.1573 -76.8005
rradius 27.9872
rwrist 9.44117
rhand -14.264 12.5264
rfingers 7.12502
rthumb 11.8745 -17.1169
lclavicle 3.27498e-014 -3.97569e-016
lhumerus -31.7384 7.24691 85.158
lradius 26.7989
lwrist -11.3877
lhand -14.3117 29.1232
lfingers 7.12502
lthumb 11.8285 58.7691
rfemur -9.10264 4.20688 26.319
rtibia 23.359
rfoot -8.84796 -8.37898
rtoes 3.54473
lfemur -24.1703 1.98077 -18.8814
ltibia 60.5537
lfoot -8.85057 -2.08332
ltoes -3.06918
145
root -8.09473 17.5865 -8.99958 -0.686962 10.2134 -4.49124
lowerback 6.14719 -0.100166 1.648
upperback 0.738027 0.0683011 2.95282
thorax -2.68868 0.0324788 2.11386
lowerneck -14.5273 -3.46002 -9.00913
upperneck 23.3235 -3.76217 4.80012
head 10.0973 -1.97663 2.72022
rclavicle 4.36829e-014 1.90833e-014
rhumerus -30.3835 -13.5081 -77.0941
rradius 28.2134
rwrist 7.98448
rhand -14.3936 12.7801
rfingers 7.12502
rthumb 11.7496 -16.8704
lclavicle 4.36829e-014 1.90833e-014
lhumerus -31.9188 7.31085 85.076
lradius 26.6005
lwrist -10.9059
lhand -15.7338 25.5927
lfingers 7.12502
lthumb 10.4569 55.3127
rfemur -8.88352 4.08278 26.4628
rtibia 23.8431
rfoot -9.49973 -9.0446
rtoes 3.20658
lfemur -25.0916 2.43078 -18.9512
ltibia 59.5937
lfoot -10.7181 -1.77539
ltoes -5.99235
146
root -8.0793 17.5632 -8.86826 -0.641834 10.6863 -4.61231
lowerback 6.26648 -0.0580156 1.83409
upperback 0.645065 0.143133 2.88965
thorax -2.85268 0.0672483 1.93855
lowerneck -14.1507 -3.72766 -9.10687
upperneck 23.4428 -4.14928 4.7912
head 10.1022 -2.17013 2.68636
rclavicle 3.27746e-014 1.94809e-014
rhumerus -30.4571 -12.9753 -77.1908
rradius 28.8719
rwrist 7.69904
rhand -14.0679 11.9845
rfingers 7.12502
rthumb 12.0636 -17.6478
lclavicle 3.27746e-014 1.94809e-014
lhumerus -32.1747 7.42534 84.9518
lradius 26.3737
lwrist -10.7703
lhand -15.8701 25.1785
lfingers 7.12502
lthumb 10.3255 54.905
rfemur -8.62062 3.92835 26.6783
rtibia 24.2819
rfoot -10.1083 -9.63958
rtoes 2.87566
lfemur -25.9782 2.88714 -18.9311
ltibia 58.5157
lfoot -11.6546 -1.15054
ltoes -6.58304
147
root -8.06486 17.5456 -8.73962 -0.608346 11.1574 -4.69148
lowerback 6.34507 -0.00786054 1.94015
upperback 0.643791 0.218844 2.8324
thorax -2.89891 0.103365 1.81336
lowerneck -14.1411 -3.85145 -9.05074
upperneck 23.4269 -4.31025 4.68915
head 10.1043 -2.25015 2.61876
rclavicle 1.86858e-014 -2.78299e-015
rhumerus -30.3282 -12.6486 -77.2103
rradius 29.3819
rwrist 7.77164
rhand -13.6499 11.2366
rfingers 7.12502
rthumb 12.4667 -18.3716
lclavicle 1.86858e-014 -2.78299e-015
lhumerus -32.2664 7.52175 84.8997
lradius 26.2184
lwrist -10.7418
lhand -15.9057 25.9231
lfingers 7.12502
lthumb 10.2911 55.6513
rfemur -8.28591 3.74969 26.8558
rtibia 24.5892
rfoot -10.6995 -10.2255
rtoes 2.49137
lfemur -26.8756 3.30624 -18.9508
ltibia 57.3254
lfoot -11.9703 -0.52532
ltoes -6.05414
148
root -8.04768 17.5298 -8.61333 -0.531571 11.7226 -4.80887
lowerback 6.27198 -0.00482917 2.04989
upperback 0.700306 0.226837 2.85807
thorax -2.79948 0.106758 1.77711
lowerneck -14.1893 -3.88558 -9.22247
upperneck 23.323 -4.32169 4.7518
head 10.0835 -2.26107 2.66663
rclavicle -4.1546e-014 -7.95139e-015
rhumerus -30.0287 -11.9566 -77.339
rradius 29.6202
rwrist 6.69016
rhand -14.2272 11.8528
rfingers 7.12502
rthumb 11.91 -17.7884
lclavicle -4.1546e-014 -7.95139e-015
lhumerus -32.2649 7.8515 84.8589
lradius 26.0071
lwrist -11.2075
lhand -15.649 26.1042
lfingers 7.12502
lthumb 10.5388 55.82
rfemur -8.00368 3.44163 27.0585
rtibia 24.7637
rfoot -11.3019 -10.4944
rtoes 2.0928
lfemur -27.7721 3.6065 -18.9631
ltibia 56.0248
lfoot -12.4611 0.0829292
ltoes -6.63761
149
root -8.02862 17.5193 -8.48332 -0.458751 12.3095 -4.96355
lowerback 6.12886 0.0146998 2.19545
upperback 0.749298 0.256166 2.87995
thorax -2.66877 0.12065 1.71496
lowerneck -14.0042 -3.89457 -9.21935
upperneck 23.0491 -4.35147 4.78137
head 9.95275 -2.26995 2.67177
rclavicle 8.69683e-016 3.18055e-015
rhumerus -29.7821 -11.1581 -77.4931
rradius 29.9396
rwrist 5.42795
rhand -14.6039 12.3547
rfingers 7.12502
rthumb 11.5468 -17.3072
lclavicle 8.69683e-016 3.18055e-015
lhumerus -32.3394 8.0799 84.8003
lradius 25.8184
lwrist -11.5043
lhand -15.734 25.8954
lfingers 7.12502
lthumb 10.4568 55.6153
rfemur -7.61058 3.26525 27.3076
rtibia 24.7897
rfoot -11.8624 -11.0096
rtoes 1.61228
lfemur -28.5796 3.87314 -18.959
ltibia 54.6077
lfoot -12.8459 0.762819
ltoes -6.78794
150
root -8.00624 17.5072 -8.35663 -0.456155 12.7456 -5.09532
lowerback 6.17063 0.126491 2.38144
upperback 0.796 0.416181 2.8217
thorax -2.6444 0.198509 1.53685
lowerneck -14.0868 -3.92132 -9.04534
upperneck 23.0255 -4.41129 4.74089
head 9.95886 -2.28474 2.61929
rclavicle 2.96935e-014 -1.03368e-014
rhumerus -29.514 -11.279 -77.365
rradius 30.6992
rwrist 6.11728
rhand -13.1605 10.4105
rfingers 7.12502
rthumb 12.9385 -19.1684
lclavicle 2.96935e-014 -1.03368e-014
lhumerus -32.5359 7.64667 84.9011
lradius 25.9869
lwrist -11.2951
lhand -15.5201 27.4767
lfingers 7.12502
lthumb 10.6631 57.1862
rfemur -7.06616 3.16535 27.5441
rtibia 24.6514
rfoot -12.0661 -11.7081
rtoes 1.17515
lfemur -29.2185 4.26493 -19.0069
ltibia 53.0729
lfoot -13.2735 1.68854
ltoes -7.69434
151
root -7.9867 17.4982 -8.23678 -0.491021 13.047 -5.32622
lowerback 6.45038 0.233869 2.60744
upperback 0.795346 0.58851 2.84206
thorax -2.80127 0.281306 1.41595
lowerneck -14.2226 -3.93627 -8.95784
upperneck 23.0007 -4.40874 4.62272
head 9.97089 -2.28645 2.56125
rclavicle -1.46852e-014 -8.54774e-015
rhumerus -29.4137 -11.1546 -77.2801
rradius 30.4339
rwrist 7.44144
rhand -14.8735 12.3339
rfingers 7.12502
rthumb 11.2867 -17.3424
lclavicle -1.46852e-014 -8.54774e-015
lhumerus -32.6379 7.6947 84.8751
lradius 25.9304
lwrist -11.3201
lhand -14.7522 28.95
lfingers 7.12502
lthumb 11.4038 58.6199
rfemur -6.49926 3.21362 27.8913
rtibia 24.3808
rfoot -12.1496 -12.2608
rtoes 0.882177
lfemur -29.8088 4.58504 -18.8913
ltibia 51.4539
lfoot -13.502 2.65761
ltoes -7.91327
152
root -7.96457 17.4999 -8.10545 -0.436812 13.4234 -5.5582
lowerback 6.49574 0.258647 2.79587
upperback 0.767235 0.640291 2.89578
thorax -2.85468 0.305003 1.36119
lowerneck -14.1263 -3.89016 -8.89577
upperneck 22.7378 -4.3274 4.4913
head 9.84825 -2.25634 2.51377
rclavicle -1.25234e-014 -1.90833e-014
rhumerus -29.3741 -10.7921 -77.2617
rradius 30.7971
rwrist 7.63555
rhand -15.0975 12.3811
rfingers 7.12502
rthumb 11.0708 -17.3069
lclavicle -1.25234e-014 -1.90833e-014
lhumerus -32.7102 8.09913 84.7795
lradius 25.7256
lwrist -11.4289
lhand -14.9034 28.7747
lfingers 7.12502
lthumb 11.2579 58.4526
rfemur -5.95863 3.22367 28.2376
rtibia 24.0915
rfoot -12.4304 -12.7622
rtoes 0.717546
lfemur -30.3835 4.80354 -18.7799
ltibia 49.6972
lfoot -13.7979 3.27212
ltoes -7.44282
153
root -7.94103 17.5042 -7.96877 -0.250114 13.8866 -5.62974
lowerback 6.17094 0.314446 2.83424
upperback 0.787321 0.700323 2.88661
thorax -2.65179 0.336148 1.32632
lowerneck -13.9883 -3.81244 -8.74901
upperneck 22.5558 -4.22455 4.34565
head 9.74275 -2.21142 2.45155
rclavicle 1.21756e-014 1.39149e-014
rhumerus -28.9562 -10.3027 -77.2949
rradius 30.9134
rwrist 7.09128
rhand -14.9116 12.1528
rfingers 7.12502
rthumb 11.2501 -17.5256
lclavicle 1.21756e-014 1.39149e-014
lhumerus -32.768 8.17534 84.8009
lradius 25.7188
lwrist -11.3508
lhand -15.3429 27.6245
lfingers 7.12502
lthumb 10.834 57.3251
rfemur -5.44686 3.14189 28.4193
rtibia 23.7457
rfoot -12.6422 -13.1749
rtoes 0.816647
lfemur -30.9588 4.88231 -18.8532
ltibia 47.8469
lfoot -13.9967 3.84447
ltoes -7.47309
154
root -7.90639 17.5045 -7.84339 0.124902 14.2502 -5.45118
lowerback 5.92403 0.455566 2.82115
upperback 0.677001 0.875596 2.75729
thorax -2.62601 0.422574 1.18703
lowerneck -13.2648 -3.70216 -8.80702
upperneck 21.9591 -4.15404 4.5406
head 9.39589 -2.16438 2.54177
rclavicle 1.53064e-014 -1.78906e-015
rhumerus -28.6575 -9.99346 -77.2033
rradius 30.9098
rwrist 6.61338
rhand -14.5508 12.1376
rfingers 7.12502
rthumb 11.598 -17.5215
lclavicle 1.53064e-014 -1.78906e-015
lhumerus -33.0765 7.8544 84.8862
lradius 25.8453
lwrist -11.1601
lhand -15.457 26.8029
lfingers 7.12502
lthumb 10.7239 56.5091
rfemur -5.14009 2.87567 28.2132
rtibia 23.3931
rfoot -12.6996 -13.2249
rtoes 0.94203
lfemur -31.5831 4.75831 -19.2159
ltibia 45.8789
lfoot -14.0585 4.81865
ltoes -7.04518
155
root -7.87102 17.5061 -7.73016 0.479809 14.3549 -5.57479
lowerback 5.95041 0.662272 3.15812
upperback 0.53888 1.1777 2.68643
thorax -2.77532 0.566775 0.899991
lowerneck -12.9046 -3.66554 -8.90963
upperneck 21.4477 -4.14604 4.74046
head 9.15605 -2.14687 2.62872
rclavicle 4.18193e-014 3.06128e-014
rhumerus -28.5288 -9.80875 -77.0998
rradius 31.1772
rwrist 6.42592
rhand -14.5135 12.1924
rfingers 7.12502
rthumb 11.634 -17.4646
lclavicle 4.18193e-014 3.06128e-014
lhumerus -33.435 7.40177 85.036
lradius 26.1538
lwrist -10.8227
lhand -15.4254 27.5673
lfingers 7.12502
lthumb 10.7545 57.272
rfemur -4.95346 2.59931 28.2808
rtibia 22.9954
rfoot -12.6523 -13.1062
rtoes 0.662487
lfemur -32.2879 4.89208 -19.2541
ltibia 43.886
lfoot -14.2225 5.76402
ltoes -6.12988
